<svg width="209" height="76" viewBox="0 0 209 76" fill="none" xmlns="http://www.w3.org/2000/svg">
<path d="M109.54 4.27896H105.09L101.838 10.8807L98.5858 4.27896H94.1357L99.8817 14.8173V21.3946H103.794V14.8173L109.54 4.27896Z" fill="black"/>
<path d="M119.053 21.7369C123.968 21.7369 127.953 17.8736 127.953 12.8368C127.953 7.79988 123.968 3.93665 119.053 3.93665C114.138 3.93665 110.153 7.79988 110.153 12.8368C110.153 17.8736 114.138 21.7369 119.053 21.7369ZM119.053 17.9225C116.266 17.9225 114.065 15.8931 114.065 12.8368C114.065 9.7804 116.266 7.75098 119.053 7.75098C121.84 7.75098 124.041 9.7804 124.041 12.8368C124.041 15.8931 121.84 17.9225 119.053 17.9225Z" fill="black"/>
<path d="M137.616 21.7369C141.382 21.7369 144.218 19.5363 144.218 15.8687V4.27896H140.306V15.5264C140.306 16.8222 139.695 17.9225 137.616 17.9225C135.538 17.9225 134.927 16.8222 134.927 15.5264V4.27896H131.015V15.8687C131.015 19.5363 133.851 21.7369 137.616 21.7369Z" fill="black"/>
<path d="M157.138 21.3946H161.343L157.7 15.1107C159.583 14.1571 160.854 12.2499 160.854 10.1472C160.854 6.8952 158.238 4.27896 154.986 4.27896H148.14V21.3946H152.052V15.7709H153.91L157.138 21.3946ZM152.052 7.94659H154.986C156.062 7.94659 156.942 8.90017 156.942 10.1472C156.942 11.3942 156.062 12.3477 154.986 12.3477H152.052V7.94659Z" fill="black"/>
<path d="M101.593 46.1877C105.31 46.1877 107.95 44.2317 107.95 40.9308C107.95 37.3121 105.041 36.4074 102.449 35.625C99.7839 34.8181 99.3682 34.2802 99.3682 33.4977C99.3682 32.8131 99.9795 32.2018 101.202 32.2018C102.767 32.2018 103.574 32.9598 104.161 34.1824L107.461 32.2507C106.214 29.7323 104.014 28.3875 101.202 28.3875C98.2435 28.3875 95.4561 30.2947 95.4561 33.5955C95.4561 36.872 97.9501 38.0945 100.493 38.8036C103.06 39.5126 104.038 39.9283 104.038 40.9797C104.038 41.6399 103.574 42.3734 101.716 42.3734C99.7839 42.3734 98.7325 41.4198 98.1212 40.0017L94.747 41.9577C95.7006 44.4762 97.999 46.1877 101.593 46.1877Z" fill="black"/>
<path d="M117.366 28.7298H110.886V45.8454H114.799V40.4662H117.366C120.74 40.4662 123.356 37.85 123.356 34.598C123.356 31.3461 120.74 28.7298 117.366 28.7298ZM117.366 36.7986H114.799V32.3974H117.366C118.564 32.3974 119.444 33.351 119.444 34.598C119.444 35.845 118.564 36.7986 117.366 36.7986Z" fill="black"/>
<path d="M134.456 46.1877C139.371 46.1877 143.356 42.3245 143.356 37.2876C143.356 32.2507 139.371 28.3875 134.456 28.3875C129.542 28.3875 125.556 32.2507 125.556 37.2876C125.556 42.3245 129.542 46.1877 134.456 46.1877ZM134.456 42.3734C131.669 42.3734 129.468 40.344 129.468 37.2876C129.468 34.2313 131.669 32.2018 134.456 32.2018C137.244 32.2018 139.444 34.2313 139.444 37.2876C139.444 40.344 137.244 42.3734 134.456 42.3734Z" fill="black"/>
<path d="M155.657 45.8454H159.863L156.22 39.5615C158.102 38.608 159.374 36.7008 159.374 34.598C159.374 31.3461 156.757 28.7298 153.505 28.7298H146.659V45.8454H150.571V40.2217H152.43L155.657 45.8454ZM150.571 32.3974H153.505C154.581 32.3974 155.462 33.351 155.462 34.598C155.462 35.845 154.581 36.7986 153.505 36.7986H150.571V32.3974Z" fill="black"/>
<path d="M173.936 28.7298H161.222V32.4952H165.623V45.8454H169.535V32.4952H173.936V28.7298Z" fill="black"/>
<path d="M103.769 70.6386C106.899 70.6386 109.638 69.0982 111.105 66.6776L107.73 64.7215C106.997 66.0418 105.505 66.8243 103.769 66.8243C100.737 66.8243 98.7814 64.7948 98.7814 61.7385C98.7814 58.6821 100.737 56.6527 103.769 56.6527C105.505 56.6527 106.972 57.4351 107.73 58.7555L111.105 56.7994C109.613 54.3788 106.875 52.8384 103.769 52.8384C98.6102 52.8384 94.8693 56.7016 94.8693 61.7385C94.8693 66.7754 98.6102 70.6386 103.769 70.6386Z" fill="black"/>
<path d="M121.966 70.6386C126.881 70.6386 130.866 66.7754 130.866 61.7385C130.866 56.7016 126.881 52.8384 121.966 52.8384C117.052 52.8384 113.066 56.7016 113.066 61.7385C113.066 66.7754 117.052 70.6386 121.966 70.6386ZM121.966 66.8243C119.179 66.8243 116.978 64.7948 116.978 61.7385C116.978 58.6821 119.179 56.6527 121.966 56.6527C124.754 56.6527 126.954 58.6821 126.954 61.7385C126.954 64.7948 124.754 66.8243 121.966 66.8243Z" fill="black"/>
<path d="M140.529 70.6386C144.295 70.6386 147.131 68.438 147.131 64.7704V53.1807H143.219V64.4281C143.219 65.724 142.608 66.8243 140.529 66.8243C138.451 66.8243 137.84 65.724 137.84 64.4281V53.1807H133.928V64.7704C133.928 68.438 136.764 70.6386 140.529 70.6386Z" fill="black"/>
<path d="M160.051 70.2963H164.256L160.613 64.0124C162.496 63.0588 163.767 61.1517 163.767 59.0489C163.767 55.7969 161.151 53.1807 157.899 53.1807H151.053V70.2963H154.965V64.6726H156.823L160.051 70.2963ZM154.965 56.8483H157.899C158.975 56.8483 159.855 57.8019 159.855 59.0489C159.855 60.2959 158.975 61.2495 157.899 61.2495H154.965V56.8483Z" fill="black"/>
<path d="M172.948 70.6386C176.664 70.6386 179.305 68.6825 179.305 65.3817C179.305 61.7629 176.395 60.8582 173.804 60.0758C171.138 59.2689 170.723 58.731 170.723 57.9486C170.723 57.264 171.334 56.6527 172.557 56.6527C174.121 56.6527 174.928 57.4107 175.515 58.6332L178.816 56.7016C177.569 54.1832 175.368 52.8384 172.557 52.8384C169.598 52.8384 166.811 54.7455 166.811 58.0464C166.811 61.3228 169.305 62.5454 171.847 63.2544C174.415 63.9635 175.393 64.3792 175.393 65.4306C175.393 66.0907 174.928 66.8243 173.07 66.8243C171.138 66.8243 170.087 65.8707 169.476 64.4525L166.102 66.4086C167.055 68.927 169.353 70.6386 172.948 70.6386Z" fill="black"/>
<path d="M186.153 66.5308V63.4989H192.266V59.7824H186.153V56.9461H192.877V53.1807H182.241V70.2963H192.999V66.5308H186.153Z" fill="black"/>
<path d="M202.297 70.6386C206.014 70.6386 208.655 68.6825 208.655 65.3817C208.655 61.7629 205.745 60.8582 203.153 60.0758C200.488 59.2689 200.072 58.731 200.072 57.9486C200.072 57.264 200.684 56.6527 201.906 56.6527C203.471 56.6527 204.278 57.4107 204.865 58.6332L208.166 56.7016C206.919 54.1832 204.718 52.8384 201.906 52.8384C198.948 52.8384 196.16 54.7455 196.16 58.0464C196.16 61.3228 198.654 62.5454 201.197 63.2544C203.764 63.9635 204.742 64.3792 204.742 65.4306C204.742 66.0907 204.278 66.8243 202.42 66.8243C200.488 66.8243 199.437 65.8707 198.825 64.4525L195.451 66.4086C196.405 68.927 198.703 70.6386 202.297 70.6386Z" fill="black"/>
<path d="M0 0H75.7977V75.7977H0V0Z" fill="black"/>
<path d="M21.3945 21.3945H54.4032V54.4032H21.3945V21.3945Z" fill="#F2C94C"/>
</svg>
