<svg width="16" height="24" viewBox="0 0 16 24" fill="none" xmlns="http://www.w3.org/2000/svg">
<path d="M14.6667 9.33333C14.2667 9.33333 14 9.2 13.7334 8.93333L7.06669 2.26667C6.53335 1.73333 6.53335 0.933333 7.06669 0.4C7.60002 -0.133333 8.40002 -0.133333 8.93335 0.4L15.6 7.06667C16.1334 7.6 16.1334 8.4 15.6 8.93333C15.3334 9.2 15.0667 9.33333 14.6667 9.33333Z" fill="black" fill-opacity="0.87"/>
<path d="M1.33333 9.33333C0.933333 9.33333 0.666667 9.2 0.4 8.93333C-0.133333 8.4 -0.133333 7.6 0.4 7.06667L7.06667 0.4C7.6 -0.133333 8.4 -0.133333 8.93333 0.4C9.46667 0.933333 9.46667 1.73333 8.93333 2.26667L2.26667 8.93333C2 9.2 1.73333 9.33333 1.33333 9.33333Z" fill="black" fill-opacity="0.87"/>
<path d="M8.00002 24C7.20002 24 6.66669 23.4667 6.66669 22.6667V1.33333C6.66669 0.533333 7.20002 0 8.00002 0C8.80002 0 9.33335 0.533333 9.33335 1.33333V22.6667C9.33335 23.4667 8.80002 24 8.00002 24Z" fill="black" fill-opacity="0.87"/>
</svg>
