<svg width="24" height="10" viewBox="0 0 24 10" fill="none" xmlns="http://www.w3.org/2000/svg">
<path d="M4.7168 1.82227C4.0332 1.82227 3.50391 2.08008 3.12891 2.5957C2.75391 3.10742 2.56641 3.82227 2.56641 4.74023C2.56641 6.65039 3.2832 7.60547 4.7168 7.60547C5.31836 7.60547 6.04688 7.45508 6.90234 7.1543V8.67773C6.19922 8.9707 5.41406 9.11719 4.54688 9.11719C3.30078 9.11719 2.34766 8.74023 1.6875 7.98633C1.02734 7.22852 0.697266 6.14258 0.697266 4.72852C0.697266 3.83789 0.859375 3.05859 1.18359 2.39062C1.50781 1.71875 1.97266 1.20508 2.57812 0.849609C3.1875 0.490234 3.90039 0.310547 4.7168 0.310547C5.54883 0.310547 6.38477 0.511719 7.22461 0.914062L6.63867 2.39062C6.31836 2.23828 5.99609 2.10547 5.67188 1.99219C5.34766 1.87891 5.0293 1.82227 4.7168 1.82227ZM13.9772 0.433594H15.8112L12.8991 9H10.9186L8.01234 0.433594H9.84633L11.4577 5.53125C11.5475 5.83203 11.6393 6.18359 11.733 6.58594C11.8307 6.98438 11.8912 7.26172 11.9147 7.41797C11.9577 7.05859 12.1041 6.42969 12.3541 5.53125L13.9772 0.433594ZM22.1419 0.433594H23.9759L21.0637 9H19.0833L16.177 0.433594H18.011L19.6223 5.53125C19.7122 5.83203 19.804 6.18359 19.8977 6.58594C19.9954 6.98438 20.0559 7.26172 20.0794 7.41797C20.1223 7.05859 20.2688 6.42969 20.5188 5.53125L22.1419 0.433594Z" fill="#F2C94C"/>
</svg>
