<svg width="122" height="45" viewBox="0 0 122 45" fill="none" xmlns="http://www.w3.org/2000/svg">
<path d="M63.7387 2.39725H61.1493L59.2571 6.23866L57.3648 2.39725H54.7755L58.1189 8.52927V12.3564H60.3953V8.52927L63.7387 2.39725ZM69.2743 12.5556C72.134 12.5556 74.4531 10.3077 74.4531 7.37685C74.4531 4.446 72.134 2.19807 69.2743 2.19807C66.4146 2.19807 64.0955 4.446 64.0955 7.37685C64.0955 10.3077 66.4146 12.5556 69.2743 12.5556ZM69.2743 10.3362C67.6524 10.3362 66.3719 9.15528 66.3719 7.37685C66.3719 5.59842 67.6524 4.41755 69.2743 4.41755C70.8962 4.41755 72.1767 5.59842 72.1767 7.37685C72.1767 9.15528 70.8962 10.3362 69.2743 10.3362ZM80.0758 12.5556C82.2668 12.5556 83.9172 11.2752 83.9172 9.14105V2.39725H81.6408V8.94187C81.6408 9.69592 81.2851 10.3362 80.0758 10.3362C78.8665 10.3362 78.5108 9.69592 78.5108 8.94187V2.39725H76.2344V9.14105C76.2344 11.2752 77.8848 12.5556 80.0758 12.5556ZM91.4348 12.3564H93.882L91.7621 8.7C92.8576 8.14513 93.5974 7.03539 93.5974 5.81183C93.5974 3.91959 92.0751 2.39725 90.1828 2.39725H86.1991V12.3564H88.4755V9.08414H89.5568L91.4348 12.3564ZM88.4755 4.53137H90.1828C90.8088 4.53137 91.321 5.08624 91.321 5.81183C91.321 6.53743 90.8088 7.0923 90.1828 7.0923H88.4755V4.53137ZM59.1148 26.5556C61.2774 26.5556 62.8139 25.4174 62.8139 23.4967C62.8139 21.3911 61.1209 20.8647 59.6128 20.4094C58.062 19.9399 57.8201 19.6269 57.8201 19.1716C57.8201 18.7732 58.1758 18.4175 58.8872 18.4175C59.7977 18.4175 60.2672 18.8586 60.6087 19.57L62.5294 18.446C61.8038 16.9806 60.5233 16.1981 58.8872 16.1981C57.1657 16.1981 55.5437 17.3078 55.5437 19.2285C55.5437 21.135 56.9949 21.8464 58.4746 22.2589C59.9685 22.6715 60.5376 22.9134 60.5376 23.5252C60.5376 23.9093 60.2672 24.3362 59.186 24.3362C58.062 24.3362 57.4502 23.7813 57.0945 22.9561L55.1311 24.0943C55.686 25.5597 57.0234 26.5556 59.1148 26.5556ZM68.2926 16.3973H64.5223V26.3564H66.7987V23.2264H68.2926C70.256 23.2264 71.7783 21.7041 71.7783 19.8118C71.7783 17.9196 70.256 16.3973 68.2926 16.3973ZM68.2926 21.0923H66.7987V18.5314H68.2926C68.9898 18.5314 69.5019 19.0862 69.5019 19.8118C69.5019 20.5374 68.9898 21.0923 68.2926 21.0923ZM78.237 26.5556C81.0967 26.5556 83.4158 24.3077 83.4158 21.3768C83.4158 18.446 81.0967 16.1981 78.237 16.1981C75.3773 16.1981 73.0582 18.446 73.0582 21.3768C73.0582 24.3077 75.3773 26.5556 78.237 26.5556ZM78.237 24.3362C76.6151 24.3362 75.3346 23.1553 75.3346 21.3768C75.3346 19.5984 76.6151 18.4175 78.237 18.4175C79.8589 18.4175 81.1394 19.5984 81.1394 21.3768C81.1394 23.1553 79.8589 24.3362 78.237 24.3362ZM90.5734 26.3564H93.0205L90.9006 22.7C91.9962 22.1451 92.736 21.0354 92.736 19.8118C92.736 17.9196 91.2136 16.3973 89.3214 16.3973H85.3377V26.3564H87.6141V23.0841H88.6954L90.5734 26.3564ZM87.6141 18.5314H89.3214C89.9474 18.5314 90.4596 19.0862 90.4596 19.8118C90.4596 20.5374 89.9474 21.0923 89.3214 21.0923H87.6141V18.5314ZM101.21 16.3973H93.8114V18.5883H96.3723V26.3564H98.6487V18.5883H101.21V16.3973ZM60.3811 40.5556C62.2022 40.5556 63.7956 39.6593 64.6493 38.2508L62.6859 37.1126C62.2591 37.8809 61.3912 38.3362 60.3811 38.3362C58.6169 38.3362 57.4787 37.1553 57.4787 35.3768C57.4787 33.5984 58.6169 32.4175 60.3811 32.4175C61.3912 32.4175 62.2448 32.8728 62.6859 33.6411L64.6493 32.5029C63.7814 31.0944 62.1879 30.1981 60.3811 30.1981C57.3791 30.1981 55.2023 32.446 55.2023 35.3768C55.2023 38.3077 57.3791 40.5556 60.3811 40.5556ZM70.9694 40.5556C73.8291 40.5556 76.1481 38.3077 76.1481 35.3768C76.1481 32.446 73.8291 30.1981 70.9694 30.1981C68.1097 30.1981 65.7906 32.446 65.7906 35.3768C65.7906 38.3077 68.1097 40.5556 70.9694 40.5556ZM70.9694 38.3362C69.3474 38.3362 68.067 37.1553 68.067 35.3768C68.067 33.5984 69.3474 32.4175 70.9694 32.4175C72.5913 32.4175 73.8718 33.5984 73.8718 35.3768C73.8718 37.1553 72.5913 38.3362 70.9694 38.3362ZM81.7709 40.5556C83.9619 40.5556 85.6123 39.2752 85.6123 37.141V30.3973H83.3359V36.9419C83.3359 37.6959 82.9802 38.3362 81.7709 38.3362C80.5615 38.3362 80.2058 37.6959 80.2058 36.9419V30.3973H77.9295V37.141C77.9295 39.2752 79.5798 40.5556 81.7709 40.5556ZM93.1299 40.3564H95.577L93.4571 36.7C94.5526 36.1451 95.2925 35.0354 95.2925 33.8118C95.2925 31.9196 93.7701 30.3973 91.8779 30.3973H87.8942V40.3564H90.1706V37.0841H91.2519L93.1299 40.3564ZM90.1706 32.5314H91.8779C92.5039 32.5314 93.0161 33.0862 93.0161 33.8118C93.0161 34.5374 92.5039 35.0923 91.8779 35.0923H90.1706V32.5314ZM100.634 40.5556C102.797 40.5556 104.334 39.4174 104.334 37.4967C104.334 35.3911 102.64 34.8647 101.132 34.4094C99.5816 33.9399 99.3397 33.6269 99.3397 33.1716C99.3397 32.7732 99.6954 32.4175 100.407 32.4175C101.317 32.4175 101.787 32.8586 102.128 33.57L104.049 32.446C103.323 30.9806 102.043 30.1981 100.407 30.1981C98.6853 30.1981 97.0633 31.3078 97.0633 33.2285C97.0633 35.135 98.5145 35.8464 99.9942 36.2589C101.488 36.6715 102.057 36.9134 102.057 37.5252C102.057 37.9093 101.787 38.3362 100.706 38.3362C99.5816 38.3362 98.9698 37.7813 98.6141 36.9561L96.6507 38.0943C97.2056 39.5597 98.543 40.5556 100.634 40.5556ZM108.318 38.1654V36.4012H111.875V34.2387H108.318V32.5883H112.231V30.3973H106.042V40.3564H112.302V38.1654H108.318ZM117.712 40.5556C119.875 40.5556 121.411 39.4174 121.411 37.4967C121.411 35.3911 119.718 34.8647 118.21 34.4094C116.659 33.9399 116.418 33.6269 116.418 33.1716C116.418 32.7732 116.773 32.4175 117.485 32.4175C118.395 32.4175 118.865 32.8586 119.206 33.57L121.127 32.446C120.401 30.9806 119.121 30.1981 117.485 30.1981C115.763 30.1981 114.141 31.3078 114.141 33.2285C114.141 35.135 115.592 35.8464 117.072 36.2589C118.566 36.6715 119.135 36.9134 119.135 37.5252C119.135 37.9093 118.865 38.3362 117.783 38.3362C116.659 38.3362 116.048 37.7813 115.692 36.9561L113.729 38.0943C114.284 39.5597 115.621 40.5556 117.712 40.5556Z" fill="black"/>
<rect width="44.105" height="44.105" fill="#F2C94C"/>
<path d="M12.4492 12.4492H31.6562V31.6562H12.4492V12.4492Z" fill="black"/>
</svg>
