<svg width="41" height="33" viewBox="0 0 41 33" fill="none" xmlns="http://www.w3.org/2000/svg">
<path d="M9.48802 20.6023C10.544 21.0823 11.408 21.8503 12.08 22.9063C12.752 23.8663 13.088 24.9223 13.088 26.0743C13.088 27.8023 12.464 29.2903 11.216 30.5383C9.96802 31.7863 8.48002 32.4103 6.75202 32.4103C5.12002 32.4103 3.72802 31.8823 2.57602 30.8263C1.42402 29.6743 0.848022 28.2343 0.848022 26.5063C0.848022 25.6423 0.992022 24.7783 1.28002 23.9143C1.66402 23.0503 2.00002 22.3303 2.28802 21.7543C2.67202 21.0823 2.91202 20.6023 3.00802 20.3143L13.088 0.154297H18.128L9.48802 20.6023ZM31.52 20.6023C32.576 21.0823 33.44 21.8503 34.112 22.9063C34.784 23.8663 35.12 24.9223 35.12 26.0743C35.12 27.8023 34.496 29.2903 33.248 30.5383C32 31.7863 30.512 32.4103 28.784 32.4103C27.152 32.4103 25.76 31.8823 24.608 30.8263C23.456 29.6743 22.88 28.2343 22.88 26.5063C22.88 25.6423 23.024 24.7783 23.312 23.9143C23.696 23.0503 24.032 22.3303 24.32 21.7543C24.704 21.0823 24.944 20.6023 25.04 20.3143L35.12 0.154297H40.16L31.52 20.6023Z" fill="#F2C94C"/>
</svg>
