<svg width="28" height="26" viewBox="0 0 28 26" fill="none" xmlns="http://www.w3.org/2000/svg">
<path d="M8 0C3.94271 0 0.609375 3.05729 0.109375 6.96875C0.0364587 7.28646 0 7.625 0 8C0 12.5677 3.49479 16.6927 6.82813 19.7552C10.1563 22.8281 13.4844 24.849 13.4844 24.849L14 25.1719L14.5156 24.849C14.5156 24.849 17.8438 22.8281 21.1823 19.7552C24.5052 16.6927 28 12.5677 28 8C28 7.625 27.9635 7.29688 27.901 6.98438C27.3906 3.05729 24.0625 0 20 0C17.5156 0 15.4635 1.29688 14 3.07813C12.5365 1.29688 10.4844 0 8 0ZM8 2C10.2031 2 12.0938 3.1875 13.1406 4.95313L14 6.40625L14.8594 4.95313C15.9063 3.1875 17.7969 2 20 2C23.0677 2 25.5573 4.28646 25.9219 7.26562L25.9375 7.34375C25.974 7.53125 26 7.74479 26 8C26 11.5 22.9948 15.375 19.8177 18.2865C16.9115 20.9688 14.4635 22.4635 14 22.75C13.5365 22.4635 11.0885 20.9688 8.17188 18.2865C5.00521 15.375 2 11.5 2 8C2 7.73438 2.02604 7.52604 2.0625 7.34375L2.07813 7.29688V7.25C2.45313 4.28646 4.93229 2 8 2Z" fill="#F2C94C"/>
</svg>
