<svg width="22" height="22" viewBox="0 0 22 22" fill="none" xmlns="http://www.w3.org/2000/svg">
<g clip-path="url(#clip0)">
<path d="M21.0833 18.3332H0.916667C0.366667 18.3332 0 17.9665 0 17.4165V4.58317C0 4.03317 0.366667 3.6665 0.916667 3.6665H21.0833C21.6333 3.6665 22 4.03317 22 4.58317V17.4165C22 17.9665 21.6333 18.3332 21.0833 18.3332ZM1.83333 16.4998H20.1667V5.49984H1.83333V16.4998Z" fill="#F2C94C"/>
<path d="M11.0001 11.9165C10.7251 11.9165 10.3584 11.7332 10.2667 11.4582C9.99175 10.9999 10.0834 10.4499 10.5417 10.1749L20.6251 3.7582C21.0834 3.4832 21.6334 3.57487 21.9084 4.0332C22.1834 4.49154 22.0917 5.04154 21.6334 5.31654L11.5501 11.7332C11.3667 11.8249 11.1834 11.9165 11.0001 11.9165Z" fill="#F2C94C"/>
<path d="M10.9999 11.9167C10.8166 11.9167 10.6333 11.825 10.5416 11.7333L0.458252 5.31667C-8.13808e-05 5.04167 -0.0917481 4.49167 0.183252 4.125C0.458252 3.66667 1.00825 3.575 1.37492 3.85L11.4583 10.2667C11.9166 10.5417 12.0083 11.0917 11.7333 11.55C11.6416 11.7333 11.2749 11.9167 10.9999 11.9167Z" fill="#F2C94C"/>
</g>
<defs>
<clipPath id="clip0">
<rect width="22" height="22" fill="white"/>
</clipPath>
</defs>
</svg>
