<svg width="38" height="37" viewBox="0 0 38 37" fill="none" xmlns="http://www.w3.org/2000/svg">
<path d="M26.579 2.60426C25.0891 2.60426 24.4262 2.82536 23.6234 3.09312L23.5801 3.10755C22.508 3.46493 21.273 3.86742 19.0001 3.86742C16.7272 3.86742 15.4922 3.46493 14.4201 3.10755L14.3768 3.09312C13.574 2.82536 12.9111 2.60426 11.4212 2.60426C9.25511 2.60426 7.0219 3.15372 5.38676 4.43848C3.85538 5.64171 2.55273 7.71677 2.55273 11.4727C2.55273 17.9853 4.33438 23.8869 6.66273 28.1071C7.8286 30.2202 9.08907 31.8348 10.2543 32.8867C11.4752 33.9889 12.3177 34.2358 12.6843 34.2358C14.2159 34.2358 14.8483 33.9987 15.3874 33.7831C15.4582 33.7548 15.5317 33.7245 15.6085 33.693C16.3394 33.3925 17.3609 32.9727 19.0001 32.9727C20.6393 32.9727 21.6608 33.3925 22.3917 33.693C22.4685 33.7245 22.542 33.7548 22.6128 33.7831C23.1519 33.9987 23.7843 34.2358 25.3159 34.2358C25.6825 34.2358 26.525 33.9889 27.7459 32.8867C28.9111 31.8348 30.1716 30.2202 31.3375 28.1071C33.6658 23.8869 35.4475 17.9853 35.4475 11.4727C35.4475 7.71677 34.1448 5.64171 32.6134 4.43848C30.9783 3.15372 28.7451 2.60426 26.579 2.60426Z" stroke="#F2C94C" stroke-width="4"/>
</svg>
