<svg width="24" height="24" viewBox="0 0 24 24" fill="none" xmlns="http://www.w3.org/2000/svg">
<path d="M11.9062 0C11.0234 0 10.3047 0.613281 10.0898 1.42969H4.28516C3.50391 1.42969 2.85547 2.07422 2.85547 2.85547V21.4297C2.85547 22.2109 3.50391 22.8555 4.28516 22.8555H19.5234C20.3086 22.8555 20.9531 22.2109 20.9531 21.4297V2.85547C20.9531 2.07422 20.3086 1.42969 19.5234 1.42969H15.2695C15.2578 1.42969 15.2461 1.42969 15.2383 1.42969H13.7188C13.5039 0.613281 12.7852 0 11.9062 0ZM11.9062 0.953125C12.4375 0.953125 12.8555 1.37109 12.8555 1.90625C12.8555 2.16797 13.0703 2.38281 13.332 2.38281H14.7617V3.33203H9.04688V2.38281H10.4766C10.7383 2.38281 10.9531 2.16797 10.9531 1.90625C10.9531 1.37109 11.3711 0.953125 11.9062 0.953125ZM4.28516 2.38281H8.09375V3.80859C8.09375 4.07031 8.30859 4.28516 8.57031 4.28516H15.2383C15.5 4.28516 15.7148 4.07031 15.7148 3.80859V2.38281H19.5234C19.793 2.38281 20 2.58594 20 2.85547V21.4297C20 21.6992 19.793 21.9062 19.5234 21.9062H4.28516C4.01562 21.9062 3.80859 21.6992 3.80859 21.4297V2.85547C3.80859 2.58594 4.01562 2.38281 4.28516 2.38281ZM17.1445 8.06641C17.1172 8.07031 17.0937 8.07422 17.0703 8.08203C17.0586 8.08594 17.0469 8.08984 17.0391 8.09375C16.9141 8.125 16.8086 8.19922 16.7422 8.30469L15.1641 10.668L14.1523 9.65625C14.0547 9.55078 13.9102 9.49609 13.7656 9.50781C13.7461 9.51172 13.7227 9.51953 13.707 9.52344C13.5273 9.55469 13.3828 9.6875 13.332 9.85938C13.2812 10.0352 13.3359 10.2188 13.4688 10.3438L14.8359 11.7109C14.8438 11.7227 14.8555 11.7305 14.8672 11.7422L14.8945 11.7695C14.9023 11.7773 14.9062 11.7812 14.9102 11.7852C14.918 11.793 14.9219 11.7969 14.9258 11.8008C14.9297 11.8047 14.9336 11.8086 14.9414 11.8164C14.9609 11.8281 14.9805 11.8359 15 11.8438C15.0078 11.8516 15.0195 11.8555 15.0312 11.8594C15.0391 11.8672 15.0508 11.8711 15.0586 11.875C15.0664 11.875 15.0703 11.875 15.0742 11.875C15.082 11.8789 15.0938 11.8867 15.1055 11.8906C15.1094 11.8906 15.1133 11.8906 15.1172 11.8906C15.1289 11.8945 15.1406 11.9023 15.1484 11.9062C15.1562 11.9062 15.1562 11.9062 15.1641 11.9062C15.1719 11.9062 15.1836 11.9062 15.1953 11.9062C15.1992 11.9062 15.2031 11.9062 15.207 11.9062C15.2383 11.9062 15.2695 11.9062 15.2969 11.9062C15.3047 11.9062 15.3086 11.9062 15.3125 11.9062C15.3477 11.8984 15.3828 11.8867 15.418 11.875C15.4258 11.8711 15.4375 11.8672 15.4453 11.8594C15.4609 11.8555 15.4766 11.8516 15.4922 11.8438C15.5039 11.8359 15.5117 11.8281 15.5195 11.8164C15.5312 11.8125 15.543 11.8047 15.5508 11.8008C15.5664 11.7891 15.582 11.7734 15.5938 11.7578C15.6055 11.7422 15.6172 11.7266 15.625 11.7109C15.6289 11.707 15.6328 11.7031 15.6406 11.6953L15.6562 11.6797C15.6602 11.668 15.6641 11.6523 15.668 11.6367L17.543 8.83984C17.6641 8.69141 17.6836 8.48828 17.5977 8.32031C17.5078 8.15234 17.332 8.05078 17.1445 8.06641ZM6.53125 9.52344C6.26953 9.5625 6.08594 9.80469 6.125 10.0664C6.16016 10.3281 6.40625 10.5117 6.66797 10.4766H11.4297C11.6016 10.4766 11.7578 10.3906 11.8477 10.2383C11.9336 10.0898 11.9336 9.91016 11.8477 9.76172C11.7578 9.60938 11.6016 9.52344 11.4297 9.52344H6.66797C6.65234 9.52344 6.63672 9.52344 6.62109 9.52344C6.60547 9.52344 6.59375 9.52344 6.57812 9.52344C6.5625 9.52344 6.54687 9.52344 6.53125 9.52344ZM17.1445 14.2578C17.1172 14.2578 17.0937 14.2617 17.0703 14.2695C17.0586 14.2734 17.0469 14.2812 17.0391 14.2852C16.9141 14.3125 16.8086 14.3867 16.7422 14.4922L15.1641 16.8594L14.1523 15.8477C14.0547 15.7422 13.9102 15.6875 13.7656 15.6992C13.7461 15.7031 13.7227 15.707 13.707 15.7148C13.5273 15.7461 13.3828 15.875 13.332 16.0508C13.2812 16.2227 13.3359 16.4102 13.4688 16.5312L14.8359 17.9023C14.8438 17.9141 14.8555 17.9219 14.8672 17.9297L14.8945 17.9609C14.9023 17.9688 14.9062 17.9688 14.9102 17.9766C14.918 17.9805 14.9219 17.9844 14.9258 17.9922C14.9297 17.9961 14.9336 18 14.9414 18.0078C14.9609 18.0156 14.9805 18.0273 15 18.0352C15.0078 18.043 15.0195 18.0469 15.0312 18.0508C15.0391 18.0547 15.0508 18.0625 15.0586 18.0664C15.0664 18.0664 15.0703 18.0664 15.0742 18.0664C15.082 18.0703 15.0938 18.0781 15.1055 18.082C15.1094 18.082 15.1133 18.082 15.1172 18.082C15.1289 18.0859 15.1406 18.0898 15.1484 18.0938C15.1562 18.0938 15.1562 18.0938 15.1641 18.0938C15.1719 18.0938 15.1836 18.0938 15.1953 18.0938C15.1992 18.0938 15.2031 18.0938 15.207 18.0938C15.2383 18.0977 15.2695 18.0977 15.2969 18.0938C15.3047 18.0938 15.3086 18.0938 15.3125 18.0938C15.3477 18.0898 15.3828 18.0781 15.418 18.0664C15.4258 18.0625 15.4375 18.0547 15.4453 18.0508C15.4609 18.0469 15.4766 18.043 15.4922 18.0352C15.5039 18.0273 15.5117 18.0156 15.5195 18.0078C15.5312 18.0039 15.543 17.9961 15.5508 17.9922C15.5664 17.9766 15.582 17.9648 15.5938 17.9453C15.6055 17.9297 15.6172 17.918 15.625 17.9023C15.6289 17.8945 15.6328 17.8906 15.6406 17.8867L15.6562 17.8711C15.6602 17.8555 15.6641 17.8438 15.668 17.8281L17.543 15.0312C17.6641 14.8828 17.6836 14.6797 17.5977 14.5117C17.5078 14.3438 17.332 14.2422 17.1445 14.2578ZM6.53125 15.7148C6.26953 15.75 6.08594 15.9961 6.125 16.2578C6.16016 16.5195 6.40625 16.7031 6.66797 16.668H11.4297C11.6016 16.668 11.7578 16.5781 11.8477 16.4297C11.9336 16.2812 11.9336 16.0977 11.8477 15.9492C11.7578 15.8008 11.6016 15.7109 11.4297 15.7148H6.66797C6.65234 15.7148 6.63672 15.7148 6.62109 15.7148C6.60547 15.7148 6.59375 15.7148 6.57812 15.7148C6.5625 15.7148 6.54687 15.7148 6.53125 15.7148Z" fill="white" fill-opacity="0.54"/>
</svg>
