<svg width="20" height="20" viewBox="0 0 20 20" fill="none" xmlns="http://www.w3.org/2000/svg">
<path d="M19.4853 14.7513L16.999 12.265C16.3135 11.5796 15.1981 11.5796 14.5127 12.265L13.3826 13.3951C12.8633 13.9144 12.0183 13.9143 11.4992 13.3953L6.60074 8.4927C6.08023 7.97219 6.08015 7.12973 6.60074 6.60914C6.78277 6.42711 7.30547 5.90442 7.73086 5.47903C8.41332 4.7966 8.42285 3.68469 7.7302 2.99211L5.24457 0.514297C4.5591 -0.171133 3.44374 -0.171133 2.76011 0.512501C2.24854 1.01961 2.08354 1.1832 1.85417 1.41059C-0.617711 3.88242 -0.617711 7.90442 1.85405 10.3762L9.61547 18.1417C12.0931 20.6193 16.1033 20.6195 18.5812 18.1417L19.4853 17.2375C20.1708 16.5521 20.1708 15.4368 19.4853 14.7513ZM3.58706 1.34305C3.81554 1.11457 4.18726 1.11453 4.41648 1.34367L6.90211 3.82149C7.13113 4.05051 7.13113 4.42117 6.90211 4.65024L6.48769 5.06461L3.1748 1.75172L3.58706 1.34305ZM10.4444 17.313L2.68292 9.54747C0.770494 7.63504 0.665377 4.63211 2.35964 2.5941L5.66293 5.89739C4.79496 6.88133 4.83113 8.38067 5.77179 9.32133L10.6701 14.2237C10.6701 14.2238 10.6702 14.2238 10.6702 14.2239C11.6099 15.1636 13.1092 15.2021 14.0943 14.3329L17.3977 17.6363C15.3661 19.3276 12.37 19.2386 10.4444 17.313ZM18.6566 16.4088L18.2422 16.8232L14.9271 13.5081L15.3415 13.0938C15.57 12.8653 15.9417 12.8652 16.1703 13.0938L18.6565 15.58C18.8851 15.8086 18.8851 16.1804 18.6566 16.4088Z" fill="#F2C94C"/>
</svg>
