<svg width="20" height="20" viewBox="0 0 20 20" fill="none" xmlns="http://www.w3.org/2000/svg">
<path fill-rule="evenodd" clip-rule="evenodd" d="M9.14599 5.21157C9.63349 5.75323 9.47932 6.36657 9.04765 6.94823C8.93533 7.09665 8.81399 7.23803 8.68432 7.37157C8.60761 7.45177 8.52982 7.53095 8.45099 7.60907L7.81182 8.24907C7.72849 8.3324 8.30015 9.47407 9.40932 10.5849C10.5177 11.6941 11.6593 12.2666 11.7435 12.1824L12.3827 11.5432C12.7343 11.1916 12.9202 11.0216 13.176 10.8541C13.7077 10.5041 14.2885 10.4099 14.7777 10.8474C16.3752 11.9907 17.2793 12.6916 17.7227 13.1516C18.5868 14.0499 18.4727 15.4316 17.7277 16.2199C17.4693 16.4932 17.141 16.8216 16.7535 17.1949C14.411 19.5391 9.46599 18.1124 5.67599 14.3199C1.88599 10.5249 0.459319 5.57907 2.79849 3.2399C3.21765 2.81323 3.35682 2.6749 3.76515 2.2724C4.52599 1.5224 5.97182 1.4049 6.85099 2.2724C7.31265 2.7299 8.05015 3.6774 9.14599 5.21073V5.21157ZM13.5602 12.7216L12.9218 13.3607C11.836 14.4466 9.98765 13.5207 8.23099 11.7632C6.47349 10.0041 5.54849 8.15573 6.63432 7.0699L7.27265 6.43157C7.37515 6.32907 7.42265 6.28157 7.47765 6.22323C7.55432 6.1424 7.61682 6.07157 7.66765 6.00907C6.69599 4.65657 6.03599 3.81157 5.68015 3.45907C5.49682 3.27823 5.08515 3.31157 4.93349 3.46073C4.53099 3.8574 4.39849 3.9899 3.98015 4.4149C2.47682 5.91907 3.62765 9.91073 6.85515 13.1407C10.0802 16.3699 14.0718 17.5216 15.5868 16.0057C15.9677 15.6382 16.2785 15.3266 16.5177 15.0741C16.691 14.8907 16.7218 14.5149 16.5227 14.3074C16.1918 13.9641 15.381 13.3324 13.981 12.3266C13.8341 12.4511 13.6937 12.5829 13.5602 12.7216Z" fill="#111111" fill-opacity="0.76"/>
</svg>
