<svg width="40" height="36" viewBox="0 0 40 36" fill="none" xmlns="http://www.w3.org/2000/svg">
<path fill-rule="evenodd" clip-rule="evenodd" d="M6.536 2C6.88706 1.39194 7.392 0.886996 8.00006 0.535924C8.60811 0.184852 9.29787 1.78369e-05 10 0H30C30.7021 1.78369e-05 31.3919 0.184852 31.9999 0.535924C32.608 0.886996 33.1129 1.39194 33.464 2H36C37.0609 2 38.0783 2.42143 38.8284 3.17157C39.5786 3.92172 40 4.93913 40 6V12C40 18.446 36.99 23.148 31.562 23.896C30.4682 25.498 29.0534 26.8552 27.4073 27.8815C25.7613 28.9078 23.9199 29.5809 22 29.858V32H24C25.0609 32 26.0783 32.4214 26.8284 33.1716C27.5786 33.9217 28 34.9391 28 36H12C12 34.9391 12.4214 33.9217 13.1716 33.1716C13.9217 32.4214 14.9391 32 16 32H18V29.86C16.0799 29.5827 14.2385 28.9093 12.5924 27.8826C10.9463 26.8559 9.53163 25.4984 8.438 23.896C3.01 23.148 0 18.446 0 12V6C0 4.93913 0.421427 3.92172 1.17157 3.17157C1.92172 2.42143 2.93913 2 4 2H6.536ZM6 6H4V12C4 15.062 4.78 17.35 6.256 18.676C6.08547 17.7942 5.99974 16.8981 6 16V6ZM34 6V16C34 16.916 33.912 17.81 33.744 18.676C35.22 17.35 36 15.062 36 12V6H34ZM10 4V16C10 18.6522 11.0536 21.1957 12.9289 23.0711C14.8043 24.9464 17.3478 26 20 26C22.6522 26 25.1957 24.9464 27.0711 23.0711C28.9464 21.1957 30 18.6522 30 16V4H10Z" fill="#F2C94C"/>
</svg>
