<svg width="40" height="40" viewBox="0 0 40 40" fill="none" xmlns="http://www.w3.org/2000/svg">
<path d="M37.8471 26.4271C37.4566 26.0366 37.4566 25.4034 37.8471 25.0129L39.2929 23.5671C39.6834 23.1766 39.6834 22.5434 39.2929 22.1529L37.8471 20.7071C37.4566 20.3166 36.8234 20.3166 36.4329 20.7071L30.7071 26.4329C30.3166 26.8234 29.6834 26.8234 29.2929 26.4329L13.5671 10.7071C13.1766 10.3166 13.1766 9.68342 13.5671 9.29289L19.2929 3.56711C19.6834 3.17658 19.6834 2.54342 19.2929 2.15289L17.8471 0.707106C17.4566 0.316582 16.8234 0.316583 16.4329 0.707107L14.9871 2.15289C14.5966 2.54342 13.9634 2.54342 13.5729 2.15289L12.1271 0.707106C11.7366 0.316582 11.1034 0.316582 10.7129 0.707107L7.84711 3.57289C7.45658 3.96342 6.82342 3.96342 6.43289 3.57289L4.98711 2.12711C4.59658 1.73658 3.96342 1.73658 3.57289 2.12711L2.12711 3.57289C1.73658 3.96342 1.73658 4.59658 2.12711 4.98711L3.57289 6.43289C3.96342 6.82342 3.96342 7.45658 3.57289 7.84711L0.707106 10.7129C0.316582 11.1034 0.316582 11.7366 0.707107 12.1271L2.15289 13.5729C2.54342 13.9634 2.54342 14.5966 2.15289 14.9871L0.707107 16.4329C0.316583 16.8234 0.316582 17.4566 0.707107 17.8471L2.15289 19.2929C2.54342 19.6834 3.17658 19.6834 3.56711 19.2929L9.29289 13.5671C9.68342 13.1766 10.3166 13.1766 10.7071 13.5671L26.4329 29.2929C26.8234 29.6834 26.8234 30.3166 26.4329 30.7071L20.7071 36.4329C20.3166 36.8234 20.3166 37.4566 20.7071 37.8471L22.1529 39.2929C22.5434 39.6834 23.1766 39.6834 23.5671 39.2929L25.0129 37.8471C25.4034 37.4566 26.0366 37.4566 26.4271 37.8471L27.8729 39.2929C28.2634 39.6834 28.8966 39.6834 29.2871 39.2929L32.1529 36.4271C32.5434 36.0366 33.1766 36.0366 33.5671 36.4271L35.0129 37.8729C35.4034 38.2634 36.0366 38.2634 36.4271 37.8729L37.8729 36.4271C38.2634 36.0366 38.2634 35.4034 37.8729 35.0129L36.4271 33.5671C36.0366 33.1766 36.0366 32.5434 36.4271 32.1529L39.2929 29.2871C39.6834 28.8966 39.6834 28.2634 39.2929 27.8729L37.8471 26.4271Z" fill="#F5D470"/>
</svg>
