<svg width="24" height="24" viewBox="0 0 24 24" fill="none" xmlns="http://www.w3.org/2000/svg">
<path fill-rule="evenodd" clip-rule="evenodd" d="M8 1.99902H16C17.5913 1.99902 19.1174 2.63116 20.2426 3.75638C21.3679 4.8816 22 6.40772 22 7.99902V15.999C22 17.5903 21.3679 19.1164 20.2426 20.2417C19.1174 21.3669 17.5913 21.999 16 21.999H8C6.4087 21.999 4.88258 21.3669 3.75736 20.2417C2.63214 19.1164 2 17.5903 2 15.999V7.99902C2 6.40772 2.63214 4.8816 3.75736 3.75638C4.88258 2.63116 6.4087 1.99902 8 1.99902ZM8 3.99902C6.93913 3.99902 5.92172 4.42045 5.17157 5.1706C4.42143 5.92074 4 6.93816 4 7.99902V15.999C4 17.0599 4.42143 18.0773 5.17157 18.8274C5.92172 19.5776 6.93913 19.999 8 19.999H16C17.0609 19.999 18.0783 19.5776 18.8284 18.8274C19.5786 18.0773 20 17.0599 20 15.999V7.99902C20 6.93816 19.5786 5.92074 18.8284 5.1706C18.0783 4.42045 17.0609 3.99902 16 3.99902H8ZM12 16.999C10.6739 16.999 9.40215 16.4722 8.46447 15.5346C7.52678 14.5969 7 13.3251 7 11.999C7 10.6729 7.52678 9.40117 8.46447 8.46349C9.40215 7.52581 10.6739 6.99902 12 6.99902C13.3261 6.99902 14.5979 7.52581 15.5355 8.46349C16.4732 9.40117 17 10.6729 17 11.999C17 13.3251 16.4732 14.5969 15.5355 15.5346C14.5979 16.4722 13.3261 16.999 12 16.999ZM12 14.999C12.7956 14.999 13.5587 14.683 14.1213 14.1203C14.6839 13.5577 15 12.7947 15 11.999C15 11.2034 14.6839 10.4403 14.1213 9.8777C13.5587 9.31509 12.7956 8.99902 12 8.99902C11.2044 8.99902 10.4413 9.31509 9.87868 9.8777C9.31607 10.4403 9 11.2034 9 11.999C9 12.7947 9.31607 13.5577 9.87868 14.1203C10.4413 14.683 11.2044 14.999 12 14.999ZM17 7.99902C16.7348 7.99902 16.4804 7.89367 16.2929 7.70613C16.1054 7.51859 16 7.26424 16 6.99902C16 6.73381 16.1054 6.47945 16.2929 6.29192C16.4804 6.10438 16.7348 5.99902 17 5.99902C17.2652 5.99902 17.5196 6.10438 17.7071 6.29192C17.8946 6.47945 18 6.73381 18 6.99902C18 7.26424 17.8946 7.51859 17.7071 7.70613C17.5196 7.89367 17.2652 7.99902 17 7.99902Z" fill="#F2C94C"/>
</svg>
