<svg width="187" height="68" viewBox="0 0 187 68" fill="none" xmlns="http://www.w3.org/2000/svg">
<path d="M97.698 3.2801H93.729L90.8286 9.16815L87.9282 3.2801H83.9592L89.084 12.6792V18.5454H92.5732V12.6792L97.698 3.2801ZM106.183 18.8507C110.566 18.8507 114.121 15.4051 114.121 10.9128C114.121 6.4204 110.566 2.9748 106.183 2.9748C101.8 2.9748 98.2449 6.4204 98.2449 10.9128C98.2449 15.4051 101.8 18.8507 106.183 18.8507ZM106.183 15.4487C103.697 15.4487 101.734 13.6387 101.734 10.9128C101.734 8.18681 103.697 6.37678 106.183 6.37678C108.669 6.37678 110.632 8.18681 110.632 10.9128C110.632 13.6387 108.669 15.4487 106.183 15.4487ZM122.739 18.8507C126.098 18.8507 128.627 16.888 128.627 13.6169V3.2801H125.138V13.3116C125.138 14.4674 124.593 15.4487 122.739 15.4487C120.886 15.4487 120.34 14.4674 120.34 13.3116V3.2801H116.851V13.6169C116.851 16.888 119.381 18.8507 122.739 18.8507ZM140.15 18.5454H143.901L140.652 12.9409C142.331 12.0904 143.465 10.3894 143.465 8.51392C143.465 5.61351 141.132 3.2801 138.231 3.2801H132.125V18.5454H135.614V13.5297H137.272L140.15 18.5454ZM135.614 6.55124H138.231C139.191 6.55124 139.976 7.40174 139.976 8.51392C139.976 9.62611 139.191 10.4766 138.231 10.4766H135.614V6.55124ZM90.6105 40.8507C93.9253 40.8507 96.2805 39.1061 96.2805 36.1621C96.2805 32.9346 93.6854 32.1277 91.3738 31.4298C88.9968 30.7102 88.6261 30.2304 88.6261 29.5326C88.6261 28.922 89.1712 28.3768 90.2616 28.3768C91.6573 28.3768 92.377 29.0528 92.9003 30.1432L95.8444 28.4204C94.7322 26.1742 92.7695 24.9748 90.2616 24.9748C87.6229 24.9748 85.1368 26.6758 85.1368 29.6198C85.1368 32.542 87.3612 33.6324 89.6292 34.2648C91.919 34.8972 92.7913 35.268 92.7913 36.2057C92.7913 36.7945 92.377 37.4487 90.7196 37.4487C88.9968 37.4487 88.0591 36.5982 87.5139 35.3334L84.5044 37.078C85.3549 39.3242 87.4048 40.8507 90.6105 40.8507ZM104.678 25.2801H98.8991V40.5454H102.388V35.7477H104.678C107.688 35.7477 110.021 33.4143 110.021 30.5139C110.021 27.6135 107.688 25.2801 104.678 25.2801ZM104.678 32.4766H102.388V28.5512H104.678C105.747 28.5512 106.532 29.4017 106.532 30.5139C106.532 31.6261 105.747 32.4766 104.678 32.4766ZM119.921 40.8507C124.304 40.8507 127.859 37.4051 127.859 32.9128C127.859 28.4204 124.304 24.9748 119.921 24.9748C115.537 24.9748 111.983 28.4204 111.983 32.9128C111.983 37.4051 115.537 40.8507 119.921 40.8507ZM119.921 37.4487C117.435 37.4487 115.472 35.6387 115.472 32.9128C115.472 30.1868 117.435 28.3768 119.921 28.3768C122.407 28.3768 124.37 30.1868 124.37 32.9128C124.37 35.6387 122.407 37.4487 119.921 37.4487ZM138.83 40.5454H142.581L139.331 34.9409C141.011 34.0904 142.145 32.3894 142.145 30.5139C142.145 27.6135 139.811 25.2801 136.911 25.2801H130.805V40.5454H134.294V35.5297H135.951L138.83 40.5454ZM134.294 28.5512H136.911C137.87 28.5512 138.655 29.4017 138.655 30.5139C138.655 31.6261 137.87 32.4766 136.911 32.4766H134.294V28.5512ZM155.133 25.2801H143.793V28.6385H147.718V40.5454H151.208V28.6385H155.133V25.2801ZM92.5514 62.8507C95.3428 62.8507 97.7852 61.4768 99.0937 59.3179L96.0842 57.5733C95.43 58.7509 94.0998 59.4487 92.5514 59.4487C89.8473 59.4487 88.1027 57.6387 88.1027 54.9128C88.1027 52.1868 89.8473 50.3768 92.5514 50.3768C94.0998 50.3768 95.4082 51.0746 96.0842 52.2522L99.0937 50.5076C97.7634 48.3487 95.321 46.9748 92.5514 46.9748C87.95 46.9748 84.6135 50.4204 84.6135 54.9128C84.6135 59.4051 87.95 62.8507 92.5514 62.8507ZM108.781 62.8507C113.164 62.8507 116.719 59.4051 116.719 54.9128C116.719 50.4204 113.164 46.9748 108.781 46.9748C104.398 46.9748 100.843 50.4204 100.843 54.9128C100.843 59.4051 104.398 62.8507 108.781 62.8507ZM108.781 59.4487C106.295 59.4487 104.332 57.6387 104.332 54.9128C104.332 52.1868 106.295 50.3768 108.781 50.3768C111.267 50.3768 113.23 52.1868 113.23 54.9128C113.23 57.6387 111.267 59.4487 108.781 59.4487ZM125.337 62.8507C128.696 62.8507 131.225 60.888 131.225 57.6169V47.2801H127.736V57.3116C127.736 58.4674 127.191 59.4487 125.337 59.4487C123.484 59.4487 122.939 58.4674 122.939 57.3116V47.2801H119.449V57.6169C119.449 60.888 121.979 62.8507 125.337 62.8507ZM142.748 62.5454H146.499L143.25 56.9409C144.929 56.0904 146.063 54.3894 146.063 52.5139C146.063 49.6135 143.73 47.2801 140.829 47.2801H134.723V62.5454H138.212V57.5297H139.87L142.748 62.5454ZM138.212 50.5512H140.829C141.789 50.5512 142.574 51.4017 142.574 52.5139C142.574 53.6261 141.789 54.4766 140.829 54.4766H138.212V50.5512ZM154.251 62.8507C157.566 62.8507 159.921 61.1061 159.921 58.1621C159.921 54.9346 157.326 54.1277 155.014 53.4298C152.637 52.7102 152.267 52.2304 152.267 51.5326C152.267 50.922 152.812 50.3768 153.902 50.3768C155.298 50.3768 156.018 51.0528 156.541 52.1432L159.485 50.4204C158.373 48.1742 156.41 46.9748 153.902 46.9748C151.264 46.9748 148.777 48.6758 148.777 51.6198C148.777 54.542 151.002 55.6324 153.27 56.2648C155.56 56.8972 156.432 57.268 156.432 58.2057C156.432 58.7945 156.018 59.4487 154.36 59.4487C152.637 59.4487 151.7 58.5982 151.155 57.3334L148.145 59.078C148.996 61.3242 151.045 62.8507 154.251 62.8507ZM166.029 59.187V56.4829H171.481V53.1682H166.029V50.6385H172.026V47.2801H162.54V62.5454H172.135V59.187H166.029ZM180.428 62.8507C183.743 62.8507 186.098 61.1061 186.098 58.1621C186.098 54.9346 183.503 54.1277 181.191 53.4298C178.814 52.7102 178.443 52.2304 178.443 51.5326C178.443 50.922 178.989 50.3768 180.079 50.3768C181.475 50.3768 182.194 51.0528 182.718 52.1432L185.662 50.4204C184.55 48.1742 182.587 46.9748 180.079 46.9748C177.44 46.9748 174.954 48.6758 174.954 51.6198C174.954 54.542 177.179 55.6324 179.447 56.2648C181.736 56.8972 182.609 57.268 182.609 58.2057C182.609 58.7945 182.194 59.4487 180.537 59.4487C178.814 59.4487 177.876 58.5982 177.331 57.3334L174.322 59.078C175.172 61.3242 177.222 62.8507 180.428 62.8507Z" fill="black"/>
<rect width="67.6035" height="67.6035" fill="black"/>
<path d="M19.0817 19.0815H48.5219V48.5218H19.0817V19.0815Z" fill="#F2C94C"/>
</svg>
