<svg width="189" height="68" viewBox="0 0 189 68" fill="none" xmlns="http://www.w3.org/2000/svg">
<path d="M98.2708 4.19352H94.2785L91.3611 10.1161L88.4437 4.19352H84.4514L89.6062 13.6477V19.5483H93.1159V13.6477L98.2708 4.19352ZM106.805 19.8554C111.214 19.8554 114.79 16.3896 114.79 11.8709C114.79 7.35223 111.214 3.88643 106.805 3.88643C102.396 3.88643 98.8209 7.35223 98.8209 11.8709C98.8209 16.3896 102.396 19.8554 106.805 19.8554ZM106.805 16.4335C104.305 16.4335 102.331 14.6129 102.331 11.8709C102.331 9.129 104.305 7.30836 106.805 7.30836C109.306 7.30836 111.28 9.129 111.28 11.8709C111.28 14.6129 109.306 16.4335 106.805 16.4335ZM123.459 19.8554C126.837 19.8554 129.381 17.8812 129.381 14.5909V4.19352H125.872V14.2838C125.872 15.4464 125.323 16.4335 123.459 16.4335C121.594 16.4335 121.046 15.4464 121.046 14.2838V4.19352H117.536V14.5909C117.536 17.8812 120.081 19.8554 123.459 19.8554ZM140.972 19.5483H144.745L141.476 13.9109C143.165 13.0554 144.306 11.3445 144.306 9.45803C144.306 6.54061 141.959 4.19352 139.042 4.19352H132.9V19.5483H136.409V14.5032H138.076L140.972 19.5483ZM136.409 7.48384H139.042C140.007 7.48384 140.796 8.33932 140.796 9.45803C140.796 10.5767 140.007 11.4322 139.042 11.4322H136.409V7.48384ZM91.1417 41.8554C94.4759 41.8554 96.8449 40.1006 96.8449 37.1393C96.8449 33.8929 94.2346 33.0813 91.9095 32.3793C89.5185 31.6554 89.1456 31.1729 89.1456 30.4709C89.1456 29.8567 89.694 29.3084 90.7908 29.3084C92.1946 29.3084 92.9185 29.9884 93.445 31.0851L96.4062 29.3522C95.2875 27.0929 93.3133 25.8864 90.7908 25.8864C88.1366 25.8864 85.6359 27.5974 85.6359 30.5587C85.6359 33.498 87.8733 34.5948 90.1546 35.2309C92.4579 35.8671 93.3353 36.24 93.3353 37.1832C93.3353 37.7754 92.9185 38.4335 91.2514 38.4335C89.5185 38.4335 88.5753 37.578 88.0269 36.3058L84.9998 38.0606C85.8553 40.32 87.9172 41.8554 91.1417 41.8554ZM105.292 26.1935H99.4789V41.5483H102.989V36.7225H105.292C108.319 36.7225 110.666 34.3754 110.666 31.458C110.666 28.5406 108.319 26.1935 105.292 26.1935ZM105.292 33.4322H102.989V29.4838H105.292C106.367 29.4838 107.156 30.3393 107.156 31.458C107.156 32.5767 106.367 33.4322 105.292 33.4322ZM120.624 41.8554C125.033 41.8554 128.608 38.3896 128.608 33.8709C128.608 29.3522 125.033 25.8864 120.624 25.8864C116.215 25.8864 112.639 29.3522 112.639 33.8709C112.639 38.3896 116.215 41.8554 120.624 41.8554ZM120.624 38.4335C118.123 38.4335 116.149 36.6129 116.149 33.8709C116.149 31.129 118.123 29.3084 120.624 29.3084C123.124 29.3084 125.099 31.129 125.099 33.8709C125.099 36.6129 123.124 38.4335 120.624 38.4335ZM139.644 41.5483H143.417L140.148 35.9109C141.837 35.0554 142.978 33.3445 142.978 31.458C142.978 28.5406 140.631 26.1935 137.713 26.1935H131.572V41.5483H135.081V36.5032H136.748L139.644 41.5483ZM135.081 29.4838H137.713C138.679 29.4838 139.468 30.3393 139.468 31.458C139.468 32.5767 138.679 33.4322 137.713 33.4322H135.081V29.4838ZM156.042 26.1935H144.636V29.5716H148.584V41.5483H152.094V29.5716H156.042V26.1935ZM93.094 63.8554C95.9017 63.8554 98.3585 62.4735 99.6746 60.3019L96.6475 58.5471C95.9895 59.7316 94.6514 60.4335 93.094 60.4335C90.374 60.4335 88.6192 58.6129 88.6192 55.8709C88.6192 53.129 90.374 51.3084 93.094 51.3084C94.6514 51.3084 95.9675 52.0103 96.6475 53.1948L99.6746 51.44C98.3366 49.2684 95.8798 47.8864 93.094 47.8864C88.4656 47.8864 85.1095 51.3522 85.1095 55.8709C85.1095 60.3896 88.4656 63.8554 93.094 63.8554ZM109.419 63.8554C113.828 63.8554 117.403 60.3896 117.403 55.8709C117.403 51.3522 113.828 47.8864 109.419 47.8864C105.01 47.8864 101.434 51.3522 101.434 55.8709C101.434 60.3896 105.01 63.8554 109.419 63.8554ZM109.419 60.4335C106.918 60.4335 104.944 58.6129 104.944 55.8709C104.944 53.129 106.918 51.3084 109.419 51.3084C111.919 51.3084 113.894 53.129 113.894 55.8709C113.894 58.6129 111.919 60.4335 109.419 60.4335ZM126.072 63.8554C129.45 63.8554 131.995 61.8812 131.995 58.5909V48.1935H128.485V58.2838C128.485 59.4464 127.937 60.4335 126.072 60.4335C124.208 60.4335 123.659 59.4464 123.659 58.2838V48.1935H120.15V58.5909C120.15 61.8812 122.694 63.8554 126.072 63.8554ZM143.585 63.5483H147.358L144.09 57.9109C145.779 57.0554 146.919 55.3445 146.919 53.458C146.919 50.5406 144.572 48.1935 141.655 48.1935H135.513V63.5483H139.023V58.5032H140.69L143.585 63.5483ZM139.023 51.4838H141.655C142.62 51.4838 143.41 52.3393 143.41 53.458C143.41 54.5767 142.62 55.4322 141.655 55.4322H139.023V51.4838ZM155.156 63.8554C158.49 63.8554 160.859 62.1006 160.859 59.1393C160.859 55.8929 158.248 55.0813 155.923 54.3793C153.532 53.6554 153.159 53.1729 153.159 52.4709C153.159 51.8567 153.708 51.3084 154.805 51.3084C156.208 51.3084 156.932 51.9884 157.459 53.0851L160.42 51.3522C159.301 49.0929 157.327 47.8864 154.805 47.8864C152.15 47.8864 149.65 49.5974 149.65 52.5587C149.65 55.498 151.887 56.5948 154.168 57.2309C156.472 57.8671 157.349 58.24 157.349 59.1832C157.349 59.7754 156.932 60.4335 155.265 60.4335C153.532 60.4335 152.589 59.578 152.041 58.3058L149.014 60.0606C149.869 62.32 151.931 63.8554 155.156 63.8554ZM167.002 60.1703V57.4503H172.486V54.1161H167.002V51.5716H173.035V48.1935H163.493V63.5483H173.144V60.1703H167.002ZM181.486 63.8554C184.82 63.8554 187.189 62.1006 187.189 59.1393C187.189 55.8929 184.579 55.0813 182.254 54.3793C179.863 53.6554 179.49 53.1729 179.49 52.4709C179.49 51.8567 180.038 51.3084 181.135 51.3084C182.539 51.3084 183.263 51.9884 183.789 53.0851L186.75 51.3522C185.632 49.0929 183.657 47.8864 181.135 47.8864C178.481 47.8864 175.98 49.5974 175.98 52.5587C175.98 55.498 178.217 56.5948 180.499 57.2309C182.802 57.8671 183.679 58.24 183.679 59.1832C183.679 59.7754 183.263 60.4335 181.595 60.4335C179.863 60.4335 178.919 59.578 178.371 58.3058L175.344 60.0606C176.199 62.32 178.261 63.8554 181.486 63.8554Z" fill="white"/>
<path d="M0 0H67.9999V67.9999H0V0Z" fill="#F2C94C"/>
<path d="M19.1938 19.1938H48.8067V48.8067H19.1938V19.1938Z" fill="black" fill-opacity="0.87"/>
</svg>
