<svg width="20" height="20" viewBox="0 0 20 20" fill="none" xmlns="http://www.w3.org/2000/svg">
<path d="M15.0003 19.3337C13.8336 19.3337 12.5003 19.0003 11.0003 18.2503C9.16694 17.3337 7.3336 16.0003 5.5836 14.2503C3.91693 12.5837 2.50027 10.667 1.5836 8.83366C0.166934 5.91699 0.0836008 3.50033 1.50027 2.16699C1.8336 1.83366 2.3336 1.83366 2.66693 2.16699C3.00027 2.50033 3.00027 3.00033 2.66693 3.33366C1.8336 4.16699 2.00027 6.00033 3.0836 8.16699C3.91693 9.83366 5.16693 11.5837 6.75027 13.167C8.3336 14.7503 10.0836 16.0003 11.7503 16.8337C13.9169 17.917 15.7503 18.0837 16.5836 17.2503C16.9169 16.917 17.4169 16.917 17.7503 17.2503C18.0836 17.5837 18.0836 18.0837 17.7503 18.417C17.0836 19.0003 16.1669 19.3337 15.0003 19.3337Z" fill="#F2C94C"/>
<path d="M6.5 8.91687C6.16667 8.91687 5.91667 8.75021 5.75 8.41687C5.5 8.00021 5.66667 7.50021 6.08333 7.33354L8 6.41687C8.33333 6.25021 8.75 5.83354 8.66667 5.33354C8.66667 5.08354 8.5 4.91687 8.33333 4.75021L5.58333 1.91687C5.33333 1.66687 4.91667 1.58354 4.5 1.66687C4.33333 1.75021 4.16667 1.83354 4 1.91687L2.66667 3.33354C2.33333 3.66687 1.83333 3.66687 1.5 3.33354C1.16667 3.00021 1.16667 2.50021 1.5 2.16687L2.83333 0.833539C3.16667 0.500205 3.58333 0.250205 4 0.166872C5 -0.0831281 6 0.166872 6.75 0.833539L9.5 3.58354C9.91667 4.00021 10.1667 4.58354 10.25 5.16687C10.4167 6.25021 9.75 7.41687 8.66667 8.00021L6.75 8.91687C6.75 8.83354 6.58333 8.91687 6.5 8.91687Z" fill="#F2C94C"/>
<path d="M17.0838 18.5834C16.8338 18.5834 16.6671 18.5 16.5004 18.3334C16.1671 18 16.1671 17.5 16.5004 17.1667L17.8338 15.8334C18.0004 15.6667 18.0838 15.5834 18.0838 15.3334C18.1671 14.9167 18.0838 14.5 17.8338 14.25L15.0838 11.5C14.9171 11.3334 14.6671 11.25 14.5004 11.1667C14.0004 11.0834 13.5838 11.4167 13.4171 11.8334L12.5004 13.75C12.3338 14.1667 11.8338 14.3334 11.4171 14.0834C11.0004 13.9167 10.8338 13.4167 11.0838 13L12.0004 11.0834C12.5838 10 13.6671 9.33338 14.8338 9.50004C15.4171 9.58338 15.9171 9.83338 16.3338 10.25L19.0838 13C19.8338 13.75 20.0838 14.75 19.7504 15.75C19.5838 16.1667 19.4171 16.5834 19.0838 16.9167L17.6671 18.3334C17.5004 18.5 17.3338 18.5834 17.0838 18.5834Z" fill="#F2C94C"/>
<path d="M11.7505 14.1667C11.5838 14.1667 11.4172 14.0833 11.2505 14C10.2505 13.25 9.25049 12.4167 8.25049 11.5C7.25049 10.5 6.41716 9.50002 5.75049 8.50002C5.50049 8.16668 5.58382 7.66668 6.00049 7.33335C6.41715 7.08335 6.91716 7.16668 7.16716 7.50002C7.83382 8.41668 8.58382 9.41668 9.50049 10.25C10.4172 11.0833 11.3338 11.9167 12.2505 12.5834C12.6672 12.8334 12.7505 13.3333 12.4172 13.75C12.3338 14.0833 12.0838 14.1667 11.7505 14.1667Z" fill="#F2C94C"/>
</svg>
