<svg width="40" height="40" viewBox="0 0 40 40" fill="none" xmlns="http://www.w3.org/2000/svg">
<path d="M18.58 26.58C18.494 26.675 18.4139 26.7752 18.34 26.88C18.2643 26.9915 18.2038 27.1126 18.16 27.24C18.1023 27.3534 18.0619 27.4747 18.04 27.6C18.0302 27.7332 18.0302 27.8668 18.04 28C18.0333 28.2624 18.088 28.5226 18.2 28.76C18.2898 29.0082 18.4331 29.2336 18.6198 29.4202C18.8064 29.6069 19.0318 29.7502 19.28 29.84C19.5194 29.9458 19.7783 30.0005 20.04 30.0005C20.3018 30.0005 20.5606 29.9458 20.8 29.84C21.0482 29.7502 21.2736 29.6069 21.4602 29.4202C21.6469 29.2336 21.7902 29.0082 21.88 28.76C21.9688 28.5168 22.0096 28.2587 22 28C22.0015 27.7368 21.9511 27.4759 21.8516 27.2322C21.752 26.9885 21.6054 26.7669 21.42 26.58C21.2341 26.3925 21.0129 26.2438 20.7692 26.1422C20.5254 26.0407 20.264 25.9884 20 25.9884C19.736 25.9884 19.4746 26.0407 19.2309 26.1422C18.9871 26.2438 18.7659 26.3925 18.58 26.58ZM20 0C16.0444 0 12.1776 1.17298 8.8886 3.37061C5.59962 5.56824 3.03617 8.69181 1.52242 12.3463C0.00866568 16.0009 -0.387401 20.0222 0.384303 23.9018C1.15601 27.7814 3.06082 31.3451 5.85787 34.1421C8.65492 36.9392 12.2186 38.844 16.0982 39.6157C19.9778 40.3874 23.9992 39.9913 27.6537 38.4776C31.3082 36.9638 34.4318 34.4004 36.6294 31.1114C38.827 27.8224 40 23.9556 40 20C40 17.3736 39.4827 14.7728 38.4776 12.3463C37.4725 9.91982 35.9993 7.71504 34.1421 5.85786C32.285 4.00069 30.0802 2.5275 27.6537 1.52241C25.2272 0.517315 22.6264 0 20 0ZM20 36C16.8355 36 13.7421 35.0616 11.1109 33.3035C8.4797 31.5454 6.42894 29.0466 5.21794 26.1229C4.00694 23.1993 3.69008 19.9823 4.30745 16.8786C4.92481 13.7749 6.44866 10.9239 8.6863 8.68629C10.9239 6.44865 13.7749 4.9248 16.8786 4.30744C19.9823 3.69007 23.1993 4.00693 26.1229 5.21793C29.0466 6.42893 31.5454 8.47969 33.3035 11.1109C35.0616 13.7421 36 16.8355 36 20C36 24.2435 34.3143 28.3131 31.3137 31.3137C28.3131 34.3143 24.2435 36 20 36ZM20 10C18.9461 9.99933 17.9107 10.2762 16.9978 10.8029C16.085 11.3295 15.3269 12.0873 14.8 13C14.6553 13.2276 14.5581 13.4822 14.5144 13.7484C14.4706 14.0145 14.4811 14.2868 14.5453 14.5488C14.6094 14.8108 14.7259 15.0571 14.8878 15.2729C15.0496 15.4887 15.2534 15.6695 15.487 15.8045C15.7205 15.9395 15.9789 16.0258 16.2467 16.0584C16.5144 16.0909 16.786 16.0689 17.0451 15.9938C17.3041 15.9186 17.5453 15.7918 17.7541 15.621C17.9629 15.4503 18.135 15.239 18.26 15C18.4362 14.6948 18.6899 14.4416 18.9955 14.266C19.3011 14.0904 19.6476 13.9986 20 14C20.5304 14 21.0392 14.2107 21.4142 14.5858C21.7893 14.9609 22 15.4696 22 16C22 16.5304 21.7893 17.0391 21.4142 17.4142C21.0392 17.7893 20.5304 18 20 18C19.4696 18 18.9609 18.2107 18.5858 18.5858C18.2107 18.9609 18 19.4696 18 20V22C18 22.5304 18.2107 23.0391 18.5858 23.4142C18.9609 23.7893 19.4696 24 20 24C20.5304 24 21.0392 23.7893 21.4142 23.4142C21.7893 23.0391 22 22.5304 22 22V21.64C23.3228 21.16 24.4347 20.2305 25.1416 19.0137C25.8484 17.797 26.1051 16.3706 25.8668 14.9838C25.6285 13.597 24.9104 12.338 23.838 11.427C22.7656 10.516 21.4071 10.0109 20 10Z" fill="#F5D470"/>
</svg>
