<svg width="24" height="24" viewBox="0 0 24 24" fill="none" xmlns="http://www.w3.org/2000/svg">
<g clip-path="url(#clip0)">
<path d="M20.041 12.979C20.277 12.525 21.131 11.243 21.771 10.279C23.646 7.46102 24 6.86002 24 6.49902C24 6.36642 23.9473 6.23924 23.8535 6.14547C23.7598 6.0517 23.6326 5.99902 23.5 5.99902H19C18.8828 5.99903 18.7694 6.04018 18.6795 6.1153C18.5895 6.19041 18.5288 6.29473 18.508 6.41002C18.26 7.78602 15.013 11.751 14.5 11.999C14.29 11.999 14 11.478 14 10.499V6.49902L14.003 6.27902C14.011 5.95402 14.018 5.61702 13.76 5.35302C13.43 5.01702 12.922 4.99902 11.5 4.99902C8.91999 4.99902 7.99999 5.77302 7.99999 6.49902C7.99999 6.77502 8.17699 6.99102 8.45399 6.99102C8.45899 6.99402 8.99999 7.35502 8.99999 9.49902C8.99999 10.079 8.99999 11.54 8.86499 11.987C7.60199 11.77 5.84499 8.59602 4.96599 6.31902C4.92967 6.2249 4.86573 6.14396 4.78256 6.08685C4.69939 6.02973 4.60088 5.99912 4.49999 5.99902H0.499993C0.426583 5.99864 0.353997 6.0145 0.287432 6.04545C0.220866 6.07641 0.161968 6.1217 0.114952 6.17808C0.067937 6.23446 0.0339679 6.30053 0.0154769 6.37158C-0.0030141 6.44262 -0.00556965 6.51688 0.00799319 6.58902C0.560993 9.60902 6.91299 18.999 11 18.999H13C14.06 18.999 14.143 17.851 14.198 17.089C14.25 16.366 14.311 15.999 14.5 15.999C15.12 15.999 16.385 17.097 17.222 17.823C18.162 18.639 18.593 18.999 19 18.999H21.5C22.786 18.999 24 18.999 24 17.999C24 17.619 23.667 17.175 21.775 15.031C21.14 14.312 20.295 13.355 20.041 12.978V12.979Z" fill="#F2C94C"/>
</g>
<defs>
<clipPath id="clip0">
<rect width="24" height="24" fill="white" transform="translate(0 -0.000976562)"/>
</clipPath>
</defs>
</svg>
